<svg
  viewBox="0 0 1024 1024"
  width="36"
  height="36"
  fill="none"
  xmlns="http://www.w3.org/2000/svg"
>
  <!-- Path 1: Circle -->
  <path
    d="M405.333333 85.333333A64 64 0 0 0 341.333333 149.333333v42.666667A64 64 0 0 0 405.333333 256h213.333334A64 64 0 0 0 682.666667 192v-42.666667A64 64 0 0 0 618.666667 85.333333h-213.333334z"
    fill="url(#gradient1)"
  ></path>
  <!-- Path 2: Rectangle -->
  <path
    d="M277.333333 172.245333c-53.674667 2.986667-87.552 11.52-111.829333 35.84C128 245.589333 128 305.92 128 426.581333v256c0 120.704 0 181.034667 37.504 218.538667 37.461333 37.461333 97.834667 37.461333 218.496 37.461333h256c120.661333 0 181.034667 0 218.496-37.461333 37.504-37.546667 37.504-97.834667 37.504-218.538667v-256c0-120.661333 0-180.992-37.504-218.496-24.277333-24.32-58.154667-32.853333-111.829333-35.84V192a128 128 0 0 1-128 128h-213.333334a128 128 0 0 1-128-128v-19.754667zM298.666667 586.666667h341.333333a32 32 0 0 1 0 64H298.666667a32 32 0 0 1 0-64z m0 149.333333h234.666666a32 32 0 0 1 0 64H298.666667a32 32 0 0 1 0-64z"
    fill="url(#gradient2)"
  ></path>

  <!-- Gradient Definitions -->
  <defs>
    <!-- Gradient for Circle -->
    <linearGradient id="gradient1" x1="0" y1="0" x2="1" y2="1" gradientUnits="userSpaceOnUse">
      <stop offset="0%" stop-color="#FFD580"></stop>
      <stop offset="100%" stop-color="#704CFF"></stop>
    </linearGradient>
    <!-- Gradient for Rectangle -->
    <linearGradient id="gradient2" x1="0" y1="0" x2="1" y2="1" gradientUnits="userSpaceOnUse">
      <stop offset="0%" stop-color="#6D4AFF"></stop>
      <stop offset="100%" stop-color="#FFD580"></stop>
    </linearGradient>
  </defs>
</svg>