<svg viewBox="0 0 36 36" width="36" height="36" fill="none" role="img">
  <path
    fill="url(#logo-43-a)"
    d="M12.42 7.54c1.95-1.96 2.93-2.93 4.06-3.3a4.93 4.93 0 0 1 3.04 0c1.13.37 2.1 1.34 4.06 3.3l4.88 4.88c1.96 1.95 2.93 2.93 3.3 4.06.32.99.32 2.05 0 3.04-.37 1.13-1.34 2.1-3.3 4.06l-4.88 4.88c-1.95 1.96-2.93 2.93-4.06 3.3-.99.32-2.05.32-3.04 0-1.13-.37-2.1-1.34-4.06-3.3l-.92-1.03a7.87 7.87 0 0 1-1.03-1.28 3.7 3.7 0 0 1-.38-1c-.09-.4-.09-.82-.09-1.66V12.51c0-.84 0-1.26.09-1.65.08-.35.2-.7.38-1 .2-.36.48-.67 1.03-1.3l.92-1.02Z"
  ></path>
  <path
    fill="url(#logo-43-b)"
    d="M12.42 7.54c1.95-1.96 2.93-2.93 4.06-3.3a4.93 4.93 0 0 1 3.04 0c1.13.37 2.1 1.34 4.06 3.3l4.88 4.88c1.96 1.95 2.93 2.93 3.3 4.06.32.99.32 2.05 0 3.04-.37 1.13-1.34 2.1-3.3 4.06l-4.88 4.88c-1.95 1.96-2.93 2.93-4.06 3.3-.99.32-2.05.32-3.04 0-1.13-.37-2.1-1.34-4.06-3.3l-.92-1.03a7.87 7.87 0 0 1-1.03-1.28 3.7 3.7 0 0 1-.38-1c-.09-.4-.09-.82-.09-1.66V12.51c0-.84 0-1.26.09-1.65.08-.35.2-.7.38-1 .2-.36.48-.67 1.03-1.3l.92-1.02Z"
  ></path>
  <path
    fill="url(#logo-43-c)"
    d="M12.07 7.89c.98-.98 1.47-1.47 2.03-1.65.5-.16 1.03-.16 1.52 0 .57.18 1.05.67 2.03 1.65l7.33 7.32c.97.98 1.46 1.46 1.64 2.03.16.5.16 1.03 0 1.52-.18.56-.67 1.05-1.64 2.03l-7.33 7.32c-.98.98-1.46 1.47-2.03 1.65-.5.16-1.03.16-1.52 0-.56-.18-1.05-.67-2.03-1.65l-4.53-4.53c-1.96-1.95-2.93-2.93-3.3-4.06a4.93 4.93 0 0 1 0-3.04c.37-1.13 1.34-2.1 3.3-4.06l4.53-4.53Z"
  ></path>
  <defs>
    <radialGradient
      id="logo-43-a"
      cx="0"
      cy="0"
      r="1"
      gradientTransform="rotate(-58.14 35.5 5.08) scale(23.3731 36.5508)"
      gradientUnits="userSpaceOnUse"
    >
      <stop stop-color="#FFD580"></stop>
      <stop offset=".09" stop-color="#F6C592"></stop>
      <stop offset=".2" stop-color="#EBB6A2"></stop>
      <stop offset=".32" stop-color="#DFA5AF"></stop>
      <stop offset=".43" stop-color="#D397BE"></stop>
      <stop offset=".53" stop-color="#C486CB"></stop>
      <stop offset=".65" stop-color="#B578D9"></stop>
      <stop offset=".77" stop-color="#A166E5"></stop>
      <stop offset=".89" stop-color="#8B57F2"></stop>
      <stop offset="1" stop-color="#704CFF"></stop>
    </radialGradient>
    <linearGradient
      id="logo-43-b"
      x1="11.49"
      x2="16.93"
      y1="-1.56"
      y2="31.68"
      gradientUnits="userSpaceOnUse"
    >
      <stop stop-color="#6D4AFF"></stop>
      <stop offset=".39" stop-color="#B39FFB" stop-opacity=".98"></stop>
      <stop offset="1" stop-color="#FFE8DB" stop-opacity=".8"></stop>
    </linearGradient>
    <radialGradient
      id="logo-43-c"
      cx="0"
      cy="0"
      r="1"
      gradientTransform="matrix(9.923 -15.96803 24.97081 15.51758 10.4 29.7)"
      gradientUnits="userSpaceOnUse"
    >
      <stop stop-color="#FFD580"></stop>
      <stop offset=".09" stop-color="#F6C592"></stop>
      <stop offset=".2" stop-color="#EBB6A2"></stop>
      <stop offset=".32" stop-color="#DFA5AF"></stop>
      <stop offset=".43" stop-color="#D397BE"></stop>
      <stop offset=".53" stop-color="#C486CB"></stop>
      <stop offset=".65" stop-color="#B578D9"></stop>
      <stop offset=".77" stop-color="#A166E5"></stop>
      <stop offset=".89" stop-color="#8B57F2"></stop>
      <stop offset="1" stop-color="#704CFF"></stop>
    </radialGradient>
  </defs>
</svg>